<svg width="156" height="42" viewBox="0 0 156 42" fill="none" xmlns="http://www.w3.org/2000/svg">
<path fill-rule="evenodd" clip-rule="evenodd" d="M0.212512 9.20048C1.29702 4.84158 4.73085 1.37142 7.85438 0.141539C9.16082 -0.372963 11.9291 0.611374 11.9486 1.5496C12.016 4.79557 12.0008 9.86903 11.9925 12.6587C11.991 13.1564 11.9898 13.5814 11.9892 13.9104C11.9888 14.132 11.9885 14.3691 11.9882 14.6192C11.985 17.043 11.9802 20.6781 11.8929 23.051C11.813 25.2224 11.3689 27.222 10.0999 28.887C9.04164 30.2752 7.21349 31.1367 6.78529 30.7745C6.52229 30.5522 6.6784 30.0862 6.90384 29.4133C7.00669 29.1062 7.12398 28.7561 7.22249 28.3664C7.53304 27.139 7.70591 25.8968 7.70591 21.9631C7.70591 20.2832 7.73636 14.9229 7.76207 10.3972C7.78085 7.09068 7.7971 4.2296 7.7971 3.57452C7.7971 3.53613 7.79714 3.49851 7.79718 3.46171C7.79802 2.66686 7.79846 2.2526 7.38945 2.57474C5.08584 4.38889 3.25565 8.52349 3.67486 12.2237C3.85045 13.7743 4.39265 14.5748 4.76569 15.1255C5.08188 15.5923 5.27655 15.8797 5.02342 16.2924C4.55464 17.0571 -1.16097 14.7219 0.212512 9.20048ZM154.444 22.6878C154.619 21.925 154.832 21.4716 155.296 21.4716C155.895 21.4716 156.095 22.1868 155.96 23.1128C155.4 26.9609 153.737 28.4234 151.704 28.4234C150.752 28.4234 148.019 27.9847 147.074 24.0642C146.377 21.1703 146.549 15.8789 146.625 14.2611C146.627 14.2173 146.565 13.9917 146.431 14.2778L146.402 14.3404C146.017 15.1635 145.046 17.2368 144.458 19.5254C143.534 23.1225 143.454 25.6259 143.5 26.0309C143.593 26.862 142.548 26.9926 142.048 26.9926C141.262 26.9926 140.296 26.9308 139.515 25.6249C139.241 25.1682 138.885 23.7252 138.618 21.2842C138.269 18.0934 138.214 15.687 138.193 14.7582L138.191 14.6532C138.181 14.2375 137.919 14.3023 137.687 14.6951L137.652 14.7544C137.224 15.4756 136.372 16.9126 135.46 20.4639C135.029 22.1442 134.965 24.2727 134.915 25.9575V25.9577V25.958V25.9582L134.915 25.9596C134.9 26.4556 134.887 26.9132 134.865 27.3094C134.829 27.973 134.565 28.23 134.226 28.2948C133.737 28.3882 132.415 28.6031 131.12 28.1487C130.827 28.046 130.424 27.8334 130.355 27.6639C130.242 27.3869 130.17 26.5083 130.125 25.4337C129.034 27.8743 127.69 28.4234 126.273 28.4234C124.913 28.4234 122.539 27.5315 122.05 24.6445C122.05 24.6445 121.758 25.2198 121.244 25.8854C118.966 28.8352 114.477 29.5884 112.155 26.1095C112.042 25.94 111.939 25.7565 111.839 25.5668C111.017 27.268 109.483 28.4137 107.878 28.4137C106.508 28.4137 104.197 27.5353 103.171 24.8051C101.695 20.8736 103.269 15.0001 103.408 14.4802L103.413 14.4611C103.494 14.1557 103.368 14.0707 102.927 14.0979C101.55 14.1831 100.26 14.1727 100.26 14.1727C99.4998 16.4407 98.0147 19.3551 96.6291 21.5252C95.3575 23.5164 93.9766 25.2178 92.7509 26.5639C92.7665 27.5769 92.7845 28.5506 92.8009 29.4404C92.8129 30.0907 92.8241 30.6961 92.8329 31.2393C92.8851 34.4519 92.1734 37.7045 91.0861 39.2158C89.8507 40.9328 87.8377 42.1596 85.4913 41.9834C83.2777 41.8174 80.3564 40.5506 80.6047 37.1422C80.7994 34.4727 83.4449 32.1799 86.9295 29.1597L86.9439 29.1472C87.7362 28.4603 89.027 27.3406 89.027 27.3406L88.9606 25.5082C88.8796 25.6211 88.7871 25.7468 88.6804 25.8854C86.4178 28.8397 81.9134 29.5884 79.5914 26.1095C79.4375 25.8789 79.2965 25.6356 79.1673 25.3809C78.065 27.7277 76.4922 28.4087 74.9689 28.4087C73.6088 28.4087 71.2334 27.434 70.9034 24.6445C70.9034 24.6445 70.7969 24.9726 70.0974 25.8854C67.8348 28.8397 63.3303 29.5884 61.0084 26.1095C60.5237 25.3831 60.1483 24.5244 59.8948 23.5368C59.0115 25.9594 56.9917 28.4219 54.9771 28.4219C51.9638 28.4219 50.2294 25.9095 49.8219 21.4691C47.5453 26.6105 44.275 28.6036 40.1926 28.4745C39.1448 28.4413 37.5019 28.1497 36.7375 27.8279C35.8498 27.454 34.9934 27.0265 35.2285 26.2179C35.4702 25.3868 35.8935 24.7156 36.6337 24.1879C36.9186 23.9847 37.3938 24.0428 37.7051 24.2365C37.9564 24.3929 38.145 24.528 38.3249 24.657C38.5599 24.8253 38.7803 24.9832 39.1066 25.1645C41.0835 26.2613 42.1943 25.1328 42.4892 24.0378C42.8748 22.6055 42.2936 21.0957 40.5234 19.5069C40.0463 19.0787 39.5689 18.6676 39.1119 18.2741L39.1114 18.2736L39.1112 18.2735L39.111 18.2734L39.1108 18.2731C38.8385 18.0387 38.5735 17.8105 38.3201 17.5886C37.3453 19.1422 35.9887 21.2979 34.5914 23.4964C32.3501 27.0243 30.2594 28.4179 28.7762 28.4179C26.8375 28.4179 25.4809 27.1108 25.7634 20.0585C25.8191 18.667 25.889 17.1453 25.9492 15.836L25.9492 15.8355L25.9492 15.8352L25.9493 15.8347C26.003 14.6653 26.0489 13.6657 26.07 13.0801C26.08 12.7994 25.8717 12.8097 25.6893 12.9812C24.6461 13.9623 22.4277 16.7249 20.726 22.3869C19.7957 25.4823 19.6535 26.6495 19.5519 27.4843C19.5341 27.6303 19.5176 27.7662 19.4983 27.9004C19.3902 28.6527 17.3084 28.4 16.9283 28.3259C16.52 28.2462 16.2722 28.053 16.0579 27.7997C15.8437 27.546 15.6705 27.1195 15.5635 26.5953C15.4562 26.0718 15.428 24.8748 15.428 23.8484L15.5194 10.3427C15.5194 9.90399 15.7693 9.68389 16.2696 9.68389C17.3197 9.68389 18.5009 10.1483 18.9431 10.3753C19.2041 10.5092 19.3182 10.7049 19.3182 10.9073L19.2621 19.5398C19.2621 19.5398 19.9118 17.8912 20.2426 16.9864C22.8669 9.80777 25.6443 9.68389 26.6069 9.68389C27.25 9.68389 28.3605 10.2794 28.8808 10.5822C29.7372 11.0808 30.248 11.6311 30.2093 12.5973C30.1811 13.3025 30.1511 14.0019 30.1219 14.6835L30.1219 14.6838L30.1218 14.6849L30.1218 14.6855L30.1218 14.6858C30.03 16.8272 29.9457 18.7939 29.9457 20.2171L29.9457 20.3022C29.9456 22.4543 29.9454 24.7196 30.7425 24.7196C31.6962 24.7196 32.9407 22.6792 34.5656 20.0153L34.5659 20.0148L34.57 20.008C34.6652 19.852 34.7617 19.6939 34.8595 19.5338C35.4971 18.4909 36.2499 17.1461 36.7979 16.1473C36.7238 16.0666 36.6521 15.9863 36.586 15.9078C35.6797 14.833 35.433 13.7985 35.8956 12.4039C36.4926 10.6039 38.4943 8.91789 40.9219 9.44584C42.3911 9.76515 42.3653 11.2129 41.7667 12.4784C40.9219 14.2649 39.9693 15.1525 39.9693 15.1525C41.6141 16.3034 43.0841 17.3535 43.8287 17.9081C45.8499 19.4134 46.972 21.1917 46.4227 23.5597C46.4227 23.5597 48.9805 21.6262 49.7067 18.047C49.7054 17.8458 49.7043 17.6387 49.7043 17.4236C49.7043 15.4008 49.7631 8.8496 49.7631 8.8496C49.2391 8.83475 48.6093 8.82006 47.9689 8.80512C46.9966 8.78244 45.9997 8.75918 45.3111 8.73394C44.3185 8.69804 45.0934 5.7779 45.8114 5.7779C46.1979 5.7779 47.051 5.81362 47.904 5.84933C48.7568 5.88503 49.6096 5.92073 49.9958 5.92073C49.9958 5.92073 50.0686 2.18549 50.2091 0.910254C50.3024 0.0699815 50.78 -0.130926 51.8328 0.0744683C52.5948 0.22303 53.2377 0.360625 53.9562 0.648027L53.9804 0.657649C54.2789 0.776202 54.7661 0.969698 54.733 1.33625C54.6929 1.78817 54.5208 6.06605 54.5208 6.06605C54.5208 6.06605 56.4397 6.20041 57.129 6.21511C57.9487 6.23156 60.0166 6.33576 60.3091 6.45466C60.9547 6.71738 60.3521 8.84012 59.7266 8.87029C58.8219 8.91405 58.1273 8.91504 57.4566 8.916C57.2028 8.91636 56.9524 8.91672 56.6954 8.91939C56.3319 8.92338 54.4549 8.95354 54.4549 8.95354C54.4048 9.57471 54.1086 16.0195 54.1086 20.5461C54.1086 23.9443 54.9365 25.5389 55.8058 25.5389C57.2914 25.5389 59.1075 22.7982 59.5186 20.42C59.5115 19.5827 59.5664 18.6866 59.6905 17.7299C60.1201 14.4192 60.9549 12.9236 61.9861 11.5746C63.5673 9.50566 65.6367 9.0014 67.631 9.56125C68.3714 9.76864 69.4843 10.4843 70.1762 11.5125V10.7709C70.1762 10.4491 70.5344 10.0177 71.0439 9.98201C71.43 9.95484 71.933 10.0017 72.5155 10.1291C73.0722 10.2512 74.2686 10.581 74.2784 11.2353C74.2796 11.3256 74.2711 11.5462 74.2588 11.8636L74.2588 11.864C74.2421 12.2961 74.2186 12.9076 74.2032 13.6133C74.1878 14.3301 74.1669 14.9505 74.146 15.5708L74.146 15.5715C74.105 16.7902 74.0641 18.0085 74.0641 19.9558C74.0641 24.994 74.814 26.0962 76.1319 26.0962C77.1628 26.0962 78.0745 24.5463 78.3916 23.0642C78.0977 21.5838 78.0579 19.827 78.2735 17.7593C78.5049 15.5409 79.3218 13.2249 80.5691 11.5746C82.1387 9.49768 84.2197 9.0014 86.214 9.56125C86.9544 9.76864 88.0673 10.4843 88.7592 11.5125C88.7592 11.5125 88.7592 10.9339 88.7566 10.8397C88.7434 10.3407 89.2503 9.91894 90.0916 9.98076C90.7582 10.0296 91.4008 10.1697 91.9444 10.3721C92.559 10.6009 92.8545 10.7819 92.8619 11.2602C92.8631 11.3496 92.8547 11.5622 92.8426 11.8692C92.8257 12.2948 92.8017 12.9019 92.7862 13.6133C92.7588 14.8636 92.6969 18.3316 92.7116 22.7384C92.7127 23.048 92.7145 23.3593 92.7169 23.6704C93.3651 22.8349 93.8672 22.0489 94.5235 20.9883C95.7489 19.0086 96.9359 16.2707 97.4201 14.1744C97.4201 14.1744 95.9443 13.3673 96.1833 11.6561C96.3341 10.5778 96.7313 9.97802 97.3149 9.46952C98.2925 8.61778 101.357 8.40142 101.027 11.0681C100.965 11.5766 100.888 11.865 100.888 11.865C102.155 11.6875 103.539 11.4564 104.508 11.2415C105.867 10.9402 106.813 11.1852 107.257 11.6648C107.741 12.1878 107.934 12.7334 107.696 13.7756C107.597 14.2131 107.499 14.6265 107.404 15.0242L107.404 15.0253L107.404 15.0255C106.971 16.849 106.616 18.3418 106.554 20.3183C106.438 23.9795 107.433 26.0962 108.804 26.0962C109.749 26.0962 110.611 25.3178 111.076 23.4179C110.692 21.7341 110.621 19.7432 110.837 17.7798C111.133 15.0942 111.885 13.2249 113.133 11.5746C114.703 9.49768 116.784 9.00115 118.778 9.56125C119.518 9.76864 120.631 10.4843 121.323 11.5125C121.323 11.5125 121.32 11.0454 121.32 10.7993C121.32 10.3409 121.7 10.0079 122.237 9.97902C122.617 9.95858 123.103 10.0064 123.662 10.1291C124.219 10.251 125.415 10.5807 125.425 11.2351C125.426 11.3254 125.418 11.546 125.406 11.8634V11.8635V11.8636V11.8637V11.8638C125.389 12.296 125.365 12.9073 125.35 13.6131C125.335 14.3297 125.314 14.9501 125.293 15.5702V15.5704V15.5706V15.5709L125.293 15.5715C125.252 16.7903 125.211 18.0085 125.211 19.9558C125.211 24.994 125.833 26.0962 127.151 26.0962C128.467 26.0962 129.677 23.4595 130.051 21.5172C130.05 21.3044 130.05 21.1042 130.05 20.9205C130.05 17.1724 130.133 11.9946 130.152 10.8239V10.8235L130.152 10.8227L130.152 10.8104L130.153 10.8047L130.153 10.7857C130.154 10.6963 130.155 10.6348 130.156 10.6043C130.156 10.592 130.156 10.5848 130.156 10.5827C130.156 10.063 130.321 9.70657 130.996 9.70657C131.543 9.70657 132.831 10.0064 133.485 10.1857C133.631 10.2258 134.112 10.4471 134.109 11.1114C134.102 12.8722 134.094 17.5143 134.094 17.5143C134.094 17.5143 134.511 16.3505 135.109 14.6301C135.846 12.5133 136.554 10.7276 137.166 10.064C137.872 9.25266 139.833 9.93465 140.479 10.3203C141.474 10.9145 141.665 11.6404 141.671 12.4931C141.7 16.4774 141.914 18.5584 142.038 19.7623C142.046 19.8434 142.054 19.9206 142.062 19.9941C142.065 20.0262 142.068 20.0577 142.071 20.0885C142.088 20.2614 142.184 20.2462 142.193 20.1722C142.372 18.7432 143.132 15.2248 145.073 10.7931C145.758 9.22979 147.131 9.70136 148.08 10.0273L148.09 10.0306C150.297 10.7886 150.523 11.5584 150.48 12.3363C150.266 16.1227 150.239 19.9289 150.406 21.9966C150.619 24.6261 151.448 25.9395 152.37 25.9395C153.195 25.9395 153.835 25.3407 154.444 22.6878ZM119.695 24.6401C120.27 23.469 120.733 21.8085 120.83 19.6844C121.026 15.3708 120.192 13.038 118.409 12.868C116.601 12.6959 115.51 14.6034 115.119 17.1291C114.735 19.6084 114.76 22.5757 115.294 24.3522C116.274 27.6115 118.583 26.9075 119.695 24.6401ZM89.1367 32.1883C89.1129 35.7237 88.577 38.8234 87.4278 39.7237C85.7977 41.0003 83.6069 40.0427 84.0605 37.4629C84.4619 35.1801 86.3603 32.8487 89.1413 30.0002C89.1413 30.0002 89.1471 30.6498 89.1367 32.1883ZM87.9731 24.637C88.5088 23.5381 88.9999 21.5932 89.101 19.6571C89.352 14.8533 88.4742 12.8572 86.6942 12.8572C84.8633 12.8572 83.8439 15.0478 83.4233 17.409C83.0992 19.2289 82.9424 22.1172 83.5974 24.3489C84.5554 27.6151 86.8673 26.9059 87.9731 24.637ZM70.2501 19.6382C70.1417 21.6882 69.7507 23.402 69.1233 24.6468C67.9882 26.8999 65.7424 27.6143 64.752 24.3588C64.038 22.0111 64.2811 18.8104 64.5781 17.0812C65.0189 14.5153 66.1226 12.6961 67.8457 12.8685C69.6156 13.0454 70.476 15.3725 70.2501 19.6382Z" fill="#000"/>
</svg>
